<svg width="36" height="24" viewBox="0 0 36 24" fill="none" xmlns="http://www.w3.org/2000/svg">
<path d="M25.6192 22.4767H19.2225V15.4632H21.0951V20.9205H24.573V15.4632H26.4456V20.9205H27.3724V24H25.6192V22.4747V22.4767ZM31.146 20.7001L27.7989 15.4768H29.861L32.1221 19.0144L34.1558 15.4768H36L31.9535 22.4902H30.1207L31.146 20.7021V20.7001ZM22.979 8.67016L17.619 5.67958V7.1623L21.387 9.27716L16.4079 12.4881V4.99911L7.51311 0L6.56923 0.568342V8.49617L0 12.7356V13.8268L8.93272 18.8501L15.1361 14.8466V20.8548L11.372 18.7399L10.1419 19.5325L15.464 22.525L16.4079 21.9567V14.0288L22.979 9.79138V8.67016ZM8.88344 17.3403L7.51121 16.5709L1.58829 13.2459L7.22502 9.60967L14.5164 13.706L8.88154 17.3403H8.88344ZM15.1343 12.5674L7.8429 8.47104V1.6683L15.1343 5.76657V12.5674Z" fill="black"/>
</svg>
